<svg width="5" height="9" viewBox="0 0 5 9" fill="none" xmlns="http://www.w3.org/2000/svg">
<path d="M0.179674 4.88449L3.94662 8.70645C4.18625 8.9497 4.57475 8.9497 4.81426 8.70645C5.05379 8.46342 5.05379 8.06924 4.81426 7.82623L1.48109 4.44438L4.81416 1.06265C5.05369 0.819515 5.05369 0.42538 4.81416 0.182348C4.57464 -0.0607826 4.18615 -0.0607826 3.94652 0.182348L0.179577 4.00437C0.059814 4.12594 0 4.28511 0 4.44436C0 4.60368 0.0599303 4.76297 0.179674 4.88449Z" fill="#7D7D7D"/>
<path d="M0.185769 4.88449L3.95272 8.70645C4.19234 8.9497 4.58085 8.9497 4.82036 8.70645C5.05988 8.46342 5.05988 8.06925 4.82036 7.82623L1.48719 4.44438L4.82026 1.06265C5.05978 0.819521 5.05978 0.425385 4.82026 0.182353C4.58073 -0.0607768 4.19224 -0.0607768 3.95262 0.182353L0.185672 4.00437C0.0659089 4.12595 0.00609493 4.28512 0.00609493 4.44436C0.00609493 4.60369 0.0660253 4.76298 0.185769 4.88449Z" fill="#7D7D7D"/>
</svg>
