<svg width="5" height="9" viewBox="0 0 5 9" fill="none" xmlns="http://www.w3.org/2000/svg">
<path d="M4.82033 4.88449L1.05338 8.70645C0.813755 8.9497 0.425247 8.9497 0.18574 8.70645C-0.0537868 8.46342 -0.0537868 8.06924 0.18574 7.82623L3.51891 4.44438L0.185837 1.06265C-0.0536899 0.819515 -0.0536899 0.42538 0.185837 0.182348C0.425363 -0.0607826 0.813852 -0.0607826 1.05348 0.182348L4.82042 4.00437C4.94019 4.12594 5 4.28511 5 4.44436C5 4.60368 4.94007 4.76297 4.82033 4.88449Z" fill="#7D7D7D"/>
<path d="M4.81423 4.88449L1.04728 8.70645C0.80766 8.9497 0.419152 8.9497 0.179645 8.70645C-0.0598816 8.46342 -0.0598816 8.06925 0.179645 7.82623L3.51281 4.44438L0.179742 1.06265C-0.0597847 0.819521 -0.0597847 0.425385 0.179742 0.182353C0.419268 -0.0607768 0.807757 -0.0607768 1.04738 0.182353L4.81433 4.00437C4.93409 4.12595 4.99391 4.28512 4.99391 4.44436C4.99391 4.60369 4.93397 4.76298 4.81423 4.88449Z" fill="#7D7D7D"/>
</svg>
