<svg width="18" height="18" viewBox="0 0 18 18" fill="none" xmlns="http://www.w3.org/2000/svg">
<path d="M8.99989 8.80318C11.0012 8.80318 12.6237 6.83254 12.6237 4.40162C12.6237 1.97064 12.091 0 8.99989 0C5.90878 0 5.37598 1.97064 5.37598 4.40162C5.37598 6.83254 6.9985 8.80318 8.99989 8.80318Z" fill="white"/>
<path d="M2.15525 15.5239C2.15464 15.3757 2.15402 15.4822 2.15525 15.5239V15.5239Z" fill="white"/>
<path d="M15.8442 15.6397C15.8462 15.5991 15.8449 15.3581 15.8442 15.6397V15.6397Z" fill="white"/>
<path d="M15.8367 15.3462C15.7696 11.1115 15.2165 9.90481 10.9843 9.14099C10.9843 9.14099 10.3885 9.90013 8.99996 9.90013C7.61138 9.90013 7.01553 9.14099 7.01553 9.14099C2.8295 9.89648 2.2428 11.0852 2.16566 15.2086C2.15934 15.5453 2.1564 15.563 2.15527 15.524C2.15553 15.5972 2.15584 15.7327 2.15584 15.9689C2.15584 15.9689 3.16343 18.0001 8.99996 18.0001C14.8364 18.0001 15.8441 15.9689 15.8441 15.9689C15.8441 15.8171 15.8442 15.7116 15.8443 15.6398C15.8432 15.6639 15.8409 15.6171 15.8367 15.3462Z" fill="white"/>
</svg>
